<svg width="96" height="14" viewBox="0 0 96 14" fill="none" xmlns="http://www.w3.org/2000/svg">
<path d="M0.702999 10.097V3.472C0.702999 2.51 1.02 1.74 1.654 1.164C2.23 0.658001 2.917 0.406998 3.716 0.406998C4.514 0.406998 5.202 0.658001 5.777 1.164C6.411 1.739 6.728 2.51 6.728 3.472V4.107H4.931V3.472C4.931 3.062 4.817 2.746 4.587 2.531C4.359 2.314 4.068 2.204 3.716 2.204C3.363 2.204 3.081 2.31 2.87 2.522C2.623 2.744 2.5 3.062 2.5 3.472V10.097C2.5 10.508 2.623 10.826 2.87 11.048C3.081 11.259 3.363 11.365 3.716 11.365C4.068 11.365 4.359 11.256 4.587 11.039C4.817 10.821 4.931 10.508 4.931 10.097V7.737H3.504V6.151H6.728V10.097C6.728 11.06 6.411 11.824 5.777 12.387C5.202 12.904 4.514 13.162 3.716 13.162C2.917 13.162 2.23 12.903 1.654 12.387C1.021 11.823 0.702999 11.06 0.702999 10.097Z" fill="#151515"/>
<path d="M8.754 13.057V0.514H14.11V2.203H10.551V5.885H13.652V7.577H10.551V11.259H14.11V13.057H8.754Z" fill="#151515"/>
<path d="M15.643 13.057V0.514H17.383L20.118 8.071V0.514H21.915V13.057H20.21L17.44 5.516V13.057H15.643Z" fill="#151515"/>
<path d="M26.884 13.056L29.684 0.513H31.182L33.983 13.056H32.186L31.658 10.362H29.209L28.68 13.056H26.884ZM31.323 8.67L30.442 4.125H30.407L29.526 8.67H31.323Z" fill="#151515"/>
<path d="M35.305 13.057V0.513H38.194C40.308 0.513 41.365 1.74 41.365 4.195C41.365 5.711 40.848 6.75599 39.815 7.33099L41.753 13.058H39.85L38.176 7.703H37.102V13.058H35.305V13.057ZM37.102 2.204V6.114H38.123C38.711 6.114 39.11 5.944 39.321 5.603C39.486 5.333 39.568 4.852 39.568 4.159C39.568 3.466 39.48 2.978 39.304 2.696C39.081 2.369 38.658 2.204 38.035 2.204H37.102Z" fill="#151515"/>
<path d="M48.958 9.48V10.254C48.958 11.041 48.679 11.723 48.122 12.298C47.563 12.874 46.891 13.162 46.104 13.162C45.294 13.162 44.63 12.956 44.113 12.544C43.467 12.028 43.145 11.247 43.145 10.201V3.295C43.145 2.461 43.417 1.772 43.964 1.225C44.51 0.678998 45.211 0.406998 46.069 0.406998C46.903 0.406998 47.592 0.687999 48.139 1.252C48.686 1.816 48.957 2.533 48.957 3.402V4.106H47.16V3.506C47.16 3.142 47.057 2.834 46.852 2.581C46.646 2.329 46.379 2.203 46.05 2.203C45.311 2.203 44.94 2.69 44.94 3.665V10.078C44.94 10.934 45.304 11.364 46.033 11.364C46.784 11.364 47.16 10.941 47.16 10.094V9.479H48.958V9.48Z" fill="#151515"/>
<path d="M50.86 13.057V0.514H52.657V5.885H54.878V0.514H56.675V13.057H54.878V7.47301H52.657V13.057H50.86Z" fill="#151515"/>
<path d="M60.656 0.513H58.859V13.056H60.656V0.513Z" fill="#151515"/>
<path d="M64.021 13.057V2.203H61.943V0.514H67.897V2.203H65.818V13.057H64.021Z" fill="#151515"/>
<path d="M69.131 13.057V0.514H74.486V2.203H70.928V5.885H74.028V7.577H70.928V11.259H74.486V13.057H69.131Z" fill="#151515"/>
<path d="M81.798 9.48V10.254C81.798 11.041 81.519 11.723 80.961 12.298C80.403 12.874 79.732 13.162 78.944 13.162C78.132 13.162 77.468 12.956 76.953 12.544C76.307 12.028 75.984 11.247 75.984 10.201V3.295C75.984 2.461 76.256 1.772 76.802 1.225C77.348 0.678998 78.05 0.406998 78.907 0.406998C79.741 0.406998 80.43 0.687999 80.977 1.252C81.524 1.816 81.796 2.533 81.796 3.402V4.106H79.999V3.506C79.999 3.142 79.896 2.834 79.691 2.581C79.485 2.329 79.217 2.203 78.888 2.203C78.149 2.203 77.779 2.69 77.779 3.665V10.078C77.779 10.934 78.142 11.364 78.871 11.364C79.623 11.364 79.999 10.941 79.999 10.094V9.479H81.798V9.48Z" fill="#151515"/>
<path d="M84.881 13.057V2.203H82.803V0.514H88.757V2.203H86.678V13.057H84.881Z" fill="#151515"/>
<path d="M95.805 3.244V4.125H94.008V3.719C94.008 2.709 93.584 2.204 92.738 2.204C91.928 2.204 91.523 2.744 91.523 3.824C91.523 4.342 91.576 4.693 91.681 4.882C91.81 5.117 92.098 5.321 92.544 5.499L93.918 6.044C94.669 6.339 95.181 6.761 95.45 7.313C95.686 7.785 95.804 8.506 95.804 9.48C95.804 11.935 94.77 13.164 92.702 13.164C91.833 13.164 91.105 12.879 90.517 12.308C89.929 11.739 89.636 11.032 89.636 10.185V9.51601H91.433V10.08C91.433 10.936 91.857 11.366 92.702 11.366C93.255 11.366 93.624 11.196 93.812 10.854C93.941 10.62 94.006 10.167 94.006 9.498C94.006 8.898 93.965 8.507 93.883 8.317C93.754 8.037 93.447 7.796 92.966 7.595L91.68 7.067C90.941 6.761 90.424 6.339 90.13 5.798C89.859 5.328 89.724 4.677 89.724 3.843C89.724 2.845 89.983 2.034 90.499 1.411C91.052 0.740003 91.821 0.405998 92.807 0.405998C93.664 0.405998 94.387 0.706001 94.975 1.304C95.528 1.869 95.805 2.515 95.805 3.244Z" fill="#151515"/>
</svg>
